<svg xmlns="http://www.w3.org/2000/svg" xml:space="preserve" width="1500" height="1500" stroke="#000" data-id="lg_2XazEhpE18YUhk1s0I" data-version="1"><path fill="#fff" stroke="transparent" d="M0 0h1500v1500H0z"/><g data-padding="20"><path stroke="none" d="M534.524 1102.42H475.32c-13.071 0-20.76-10.187-20.76-23.354l-2.883-588.763-182.223 40.365 129.747 584.247a74.97 74.97 0 0 0 34.6 34.118 67.3 67.3 0 0 0 40.173 7.593l342.629-54.302Zm-13.936-650.078h585.976v83.711H520.588Z"/><path stroke="none" d="M520.588 619.858h334.844v167.421H520.588Zm376.747 0h209.325v41.903H897.335Zm0 125.518h209.325v41.903H897.335ZM520.588 870.99h585.976v41.904H520.588Zm0 125.615h585.976v41.903H520.588Z"/><path stroke="none" d="M1178.358 403.228v675.358c0 13.263-10.572 23.835-23.643 23.835H475.128c-13.07 0-20.663-10.188-20.663-23.355l.288-667.573v-16.915h-52.09v-1.922l-.674 699.48c0 36.426 26.527 65.259 62.664 65.259h697.174c36.04 0 68.718-29.602 68.718-65.835V394.578h-52.187Z"/><path stroke="none" d="M1165.19 326.728H402.663v67.757h52.091v-15.378h723.605v15.378h52.187v-67.757Zm13.168 85.63v-9.13Z"/><g transform="translate(113.83 -192.777)scale(1.86982)"><filter id="a" width="148%" height="194%" x="-24%" y="-47%" fill="#000" stroke="#000"><feGaussianBlur in="SourceAlpha" stdDeviation="3"/><feOffset dx="3" dy="3" result="oBlur"/><feFlood flood-color="#000" flood-opacity="1"/><feComposite in2="oBlur" operator="in"/><feMerge><feMergeNode/><feMergeNode in="SourceGraphic"/></feMerge></filter><g stroke="none" filter="url(#a)"><path fill="#fdfdfd" d="M258.7 363.786v13.93h-2.59v-20.3h3.63l12.34 13.94v-13.94h2.58v20.3h-3.64Zm35.13 11.34v2.59h-14.58v-20.3h14.58v2.59h-8.98v6.28h6.93v2.58h-6.93v6.26Zm15.69-10.38-3.26 12.97h-5.12l-5.32-20.3h5.7l3.37 14.41 2.99-14.41h5.13l3.27 14.77 3.68-14.77h3.46l-5.91 20.3h-5.13Zm33.2 6.77q0 1.31-.33 2.31-.34 1-.93 1.73-.6.74-1.42 1.23t-1.78.79q-.97.29-2.05.42t-2.19.13q-1.47 0-2.71-.22t-2.33-.69-2.1-1.22-2.01-1.82l2.88-2.92q.39.98 1.08 1.8.69.83 1.52 1.42.82.59 1.71.93t1.68.34q.93 0 1.75-.14.81-.13 1.42-.44t.95-.83q.35-.51.35-1.29 0-.59-.27-1.01t-.7-.73q-.43-.3-.98-.51t-1.12-.36-1.12-.27-.97-.25l-1.74-.51q-.9-.28-1.77-.63-.88-.35-1.66-.81t-1.37-1.08q-.6-.63-.95-1.46-.35-.82-.35-1.89 0-1.28.32-2.28.31-.99.89-1.72.58-.74 1.37-1.24t1.73-.8q.95-.3 2.01-.44 1.07-.13 2.18-.13 1.52 0 2.77.28t2.3.8q1.06.52 1.94 1.25t1.66 1.61l-2.88 2.92q-.34-1.01-.93-1.83-.6-.82-1.34-1.4-.73-.59-1.53-.9-.81-.32-1.55-.32-.98 0-1.79.13-.82.14-1.41.44-.58.3-.91.82-.32.51-.32 1.27 0 .61.24 1.03t.64.72.91.49 1.05.33 1.07.24q.53.11.97.24l1.77.5q.93.27 1.84.63.9.36 1.72.83.81.46 1.43 1.1t.99 1.48.37 1.93m9.08-1.38v7.58h-5.59v-20.3h10.96q1.43 0 2.73.38 1.31.38 2.31 1.15t1.6 1.93.6 2.73q0 .99-.29 1.85-.28.87-.78 1.59t-1.18 1.3q-.67.57-1.48.97-.8.39-1.69.6-.9.22-1.82.22Zm6.94-6.53q0-1.96-.99-3.08-1-1.12-3-1.12h-2.95v8.81h2.95q1.07 0 1.83-.35.75-.34 1.23-.96t.7-1.46q.23-.84.23-1.84m27.91 4.39v.26q-.03 1.19-.25 2.46t-.61 2.53q-.4 1.27-.94 2.51-.55 1.24-1.24 2.38-.68 1.13-1.47 2.13-.79.99-1.66 1.75l-2.1-1.21q.49-.83.89-1.81t.73-2.05q.32-1.07.55-2.2.24-1.13.39-2.24.16-1.12.23-2.19.08-1.08.08-2.06l-.01-1.72q0-.97-.11-1.97-.1-1-.34-1.95t-.72-1.7q-.47-.75-1.21-1.2t-1.84-.45q-.97 0-1.67.33t-1.18.89q-.49.56-.78 1.29t-.45 1.54-.21 1.64q-.05.82-.05 1.56v3.93h6.08v2.33h-6.08v4.93h-5.6v-10.32q0-2.21.71-4.11.7-1.91 1.99-3.31t3.1-2.2q1.82-.8 4.04-.8 1.51 0 2.83.43t2.4 1.19q1.09.75 1.94 1.79.85 1.03 1.42 2.26.58 1.23.87 2.59.3 1.37.27 2.77m9.22 2.14v7.58h-5.59v-20.3h10.96q1.43 0 2.73.38t2.3 1.15q1.01.77 1.6 1.93.6 1.16.6 2.73 0 .99-.28 1.85-.28.87-.78 1.59t-1.18 1.3q-.67.57-1.48.97-.8.39-1.7.6-.89.22-1.81.22Zm6.94-6.53q0-1.96-1-3.08-.99-1.12-2.99-1.12h-2.95v8.81h2.95q1.07 0 1.82-.35.76-.34 1.24-.96t.7-1.46q.23-.84.23-1.84m23.17 11.52v2.59H411.4v-20.3h14.58v2.59H417v6.28h6.93v2.58H417v6.26Zm9.06-4.99v7.58h-5.6v-20.3h9.98q1.41 0 2.72.33 1.32.33 2.32 1.05 1.01.71 1.61 1.83.6 1.13.6 2.74 0 1.25-.53 2.36t-1.41 1.97q-.88.87-2.02 1.44t-2.37.76q.55.93 1.15 1.76t1.21 1.56q.61.72 1.22 1.33.61.62 1.16 1.13 1.29 1.18 2.56 2.04h-6.98q-.84-.8-1.6-1.93-.65-.96-1.31-2.38-.65-1.41-1-3.27Zm5.95-6.77q0-2.04-.99-3-1-.96-2.99-.96h-1.97v8.81h1.97q1.06 0 1.82-.4.75-.4 1.23-1.07t.7-1.55q.23-.87.23-1.83m13.6 12.23q0 .54-.2 1.01-.19.47-.55.82-.35.35-.81.55-.47.2-1 .2-.54 0-1-.2-.47-.2-.82-.55t-.55-.82-.2-1.01q0-.52.2-.99t.55-.82q.35-.34.82-.55.46-.2 1-.2.53 0 1 .2.46.21.81.55.36.35.55.82.2.47.2.99m23.09-7.6v.26q-.02 1.19-.24 2.46t-.62 2.53q-.39 1.27-.94 2.51t-1.23 2.38q-.69 1.13-1.48 2.13-.79.99-1.66 1.75l-2.1-1.21q.49-.83.9-1.81.4-.98.72-2.05.33-1.07.56-2.2t.39-2.24q.15-1.12.23-2.19.08-1.08.08-2.06l-.01-1.72q-.01-.97-.11-1.97-.11-1-.35-1.95t-.71-1.7-1.21-1.2-1.84-.45q-.98 0-1.67.33-.7.33-1.19.89-.48.56-.77 1.29t-.45 1.54q-.17.81-.22 1.64-.04.82-.04 1.56v3.93h6.07v2.33h-6.07v4.93h-5.6v-10.32q0-2.21.7-4.11.71-1.91 2-3.31t3.1-2.2 4.04-.8q1.51 0 2.82.43 1.32.43 2.41 1.19 1.08.75 1.94 1.79.85 1.03 1.42 2.26t.87 2.59q.29 1.37.26 2.77m9.25-10.58v20.3h-5.6v-20.3Z"/><rect width="236.49" height="32.62" x="254.31" y="353.426" fill="none" rx="0" ry="0"/></g></g><path fill="transparent" stroke="transparent" stroke-width="1.946" d="M250 318.093h1000v863.814H250z"/></g></svg>
